<?xml version="1.0" encoding="UTF-8"?>
<svg version="1.1" xmlns="http://www.w3.org/2000/svg" width="32" height="32">
<path d="M0 0 C10.56 0 21.12 0 32 0 C32 10.56 32 21.12 32 32 C21.44 32 10.88 32 0 32 C0 21.44 0 10.88 0 0 Z " fill="#090809" transform="translate(0,0)"/>
<path d="M0 0 C1.65 1.32 3.3 2.64 5 4 C5.598125 3.505 6.19625 3.01 6.8125 2.5 C9 1 9 1 12 1 C12.79953138 4.28696233 13.09658936 5.71023192 12 9 C14.475 9.495 14.475 9.495 17 10 C15.71937515 11.7074998 14.38232443 13.37373596 13 15 C12.34 15 11.68 15 11 15 C11 15.99 11 16.98 11 18 C8.69 17.67 6.38 17.34 4 17 C4 16.01 4 15.02 4 14 C2.35 14 0.7 14 -1 14 C-1.99 12.02 -2.98 10.04 -4 8 C-3.01 7.67 -2.02 7.34 -1 7 C-0.67 4.69 -0.34 2.38 0 0 Z " fill="#E9E9E9" transform="translate(10,5)"/>
<path d="M0 0 C1.65 0 3.3 0 5 0 C5 7.92 5 15.84 5 24 C2 25 2 25 -0.91796875 23.56640625 C-1.99691406 22.90511719 -3.07585938 22.24382813 -4.1875 21.5625 C-5.27417969 20.90378906 -6.36085938 20.24507812 -7.48046875 19.56640625 C-8.31191406 19.04949219 -9.14335937 18.53257813 -10 18 C-8.68 17.67 -7.36 17.34 -6 17 C-6 16.01 -6 15.02 -6 14 C-3.5 11.8125 -3.5 11.8125 -1 10 C-1.66 9.67 -2.32 9.34 -3 9 C-2.25 2.25 -2.25 2.25 0 0 Z " fill="#393836" transform="translate(27,6)"/>
<path d="M0 0 C0.74886475 0.00523682 1.49772949 0.01047363 2.26928711 0.01586914 C3.07817383 0.0190918 3.88706055 0.02231445 4.72045898 0.02563477 C5.5705957 0.03401367 6.42073242 0.04239258 7.29663086 0.05102539 C8.15063477 0.05553711 9.00463867 0.06004883 9.88452148 0.06469727 C12.00108749 0.07652166 14.11761771 0.0944577 16.23413086 0.11352539 C16.23413086 2.09352539 16.23413086 4.07352539 16.23413086 6.11352539 C15.28538086 6.31977539 14.33663086 6.52602539 13.35913086 6.73852539 C11.81225586 7.41915039 11.81225586 7.41915039 10.23413086 8.11352539 C9.00892822 11.12199957 9.00892822 11.12199957 8.23413086 14.11352539 C7.24413086 14.44352539 6.25413086 14.77352539 5.23413086 15.11352539 C5.56413086 12.14352539 5.89413086 9.17352539 6.23413086 6.11352539 C5.28538086 6.58790039 4.33663086 7.06227539 3.35913086 7.55102539 C1.65079753 8.40519206 -0.05753581 9.25935872 -1.76586914 10.11352539 C-3.39086914 8.42602539 -3.39086914 8.42602539 -4.76586914 6.11352539 C-3.1156673 0.20030213 -3.1156673 0.20030213 0 0 Z " fill="#282520" transform="translate(15.765869140625,-0.113525390625)"/>
<path d="M0 0 C1.98 0 3.96 0 6 0 C6 0.99 6 1.98 6 3 C6.99 3 7.98 3 9 3 C9 3.66 9 4.32 9 5 C9.680625 5.2475 10.36125 5.495 11.0625 5.75 C13.42190448 6.75400191 15.43914409 7.81627098 17.625 9.125 C20.79360175 11.24282147 20.79360175 11.24282147 24 11 C24 11.66 24 12.32 24 13 C15.09 13 6.18 13 -3 13 C-2.01 12.01 -1.02 11.02 0 10 C0.99 10 1.98 10 3 10 C3 9.236875 3 8.47375 3 7.6875 C3 5.79166667 3 3.89583333 3 2 C2.01 1.34 1.02 0.68 0 0 Z " fill="#262120" transform="translate(8,19)"/>
<path d="M0 0 C1.65 1.32 3.3 2.64 5 4 C5.928125 3.2575 5.928125 3.2575 6.875 2.5 C9 1 9 1 11 1 C10.125 6.75 10.125 6.75 9 9 C8.34 9 7.68 9 7 9 C7 8.34 7 7.68 7 7 C5.576875 7.5259375 5.576875 7.5259375 4.125 8.0625 C1 9 1 9 -1 8 C-1.125 2.25 -1.125 2.25 0 0 Z " fill="#DEDDDD" transform="translate(10,5)"/>
<path d="M0 0 C4.27196555 1.51585874 8.02615668 3.68097306 11.9140625 5.9765625 C14.06163549 7.22023806 14.06163549 7.22023806 17 7 C17 7.66 17 8.32 17 9 C12.71 9 8.42 9 4 9 C3.67 7.02 3.34 5.04 3 3 C2.01 2.67 1.02 2.34 0 2 C0 1.34 0 0.68 0 0 Z " fill="#060606" transform="translate(15,23)"/>
<path d="M0 0 C0.99 0.33 1.98 0.66 3 1 C2.34 1 1.68 1 1 1 C1.474375 1.37125 1.94875 1.7425 2.4375 2.125 C4.52205802 4.62646962 4.64621491 6.81593418 5 10 C3.35 9.67 1.7 9.34 0 9 C-0.87890625 2.84765625 -0.87890625 2.84765625 -1 1 C-0.67 0.67 -0.34 0.34 0 0 Z " fill="#322C2B" transform="translate(14,22)"/>
<path d="M0 0 C2.31 0.66 4.62 1.32 7 2 C5.71937515 3.7074998 4.38232443 5.37373596 3 7 C2.34 7 1.68 7 1 7 C1 7.66 1 8.32 1 9 C0.34 9 -0.32 9 -1 9 C-0.67 6.03 -0.34 3.06 0 0 Z " fill="#DADADA" transform="translate(20,13)"/>
<path d="M0 0 C2.31 0 4.62 0 7 0 C7 1.98 7 3.96 7 6 C4.03 5.505 4.03 5.505 1 5 C0.67 3.35 0.34 1.7 0 0 Z " fill="#020202" transform="translate(25,0)"/>
<path d="M0 0 C2.91517292 1.07401108 4.77810176 1.77810176 7 4 C6.34 5.65 5.68 7.3 5 9 C3 6 3 6 3 3 C2.01 2.67 1.02 2.34 0 2 C0 1.34 0 0.68 0 0 Z " fill="#120C0B" transform="translate(15,23)"/>
<path d="M0 0 C2.475 0.495 2.475 0.495 5 1 C5.33 2.65 5.66 4.3 6 6 C5.01 6 4.02 6 3 6 C2.01 4.02 1.02 2.04 0 0 Z " fill="#E9E9E9" transform="translate(6,13)"/>
<path d="M0 0 C1.32 0.33 2.64 0.66 4 1 C2.68 2.32 1.36 3.64 0 5 C-0.99 4.67 -1.98 4.34 -3 4 C-2.01 2.68 -1.02 1.36 0 0 Z " fill="#322E29" transform="translate(14,0)"/>
</svg>
