<?xml version="1.0" encoding="UTF-8"?>
<svg version="1.1" xmlns="http://www.w3.org/2000/svg" width="32" height="32">
<path d="M0 0 C10.56 0 21.12 0 32 0 C32 10.56 32 21.12 32 32 C21.44 32 10.88 32 0 32 C0 21.44 0 10.88 0 0 Z " fill="#282420" transform="translate(0,0)"/>
<path d="M0 0 C4.62 0 9.24 0 14 0 C12.0092846 3.31785901 10.132489 6.27073664 7.8125 9.3125 C7.28269531 10.00988281 6.75289063 10.70726562 6.20703125 11.42578125 C5.80871094 11.94527344 5.41039062 12.46476563 5 13 C5.78375 13.78375 6.5675 14.5675 7.375 15.375 C12 20 12 20 12.1875 22.05859375 C11.99479369 24.503555 11.737892 26.65762189 11 29 C7.03499702 31.97375224 5.04164709 32 0 32 C0 21.44 0 10.88 0 0 Z " fill="#030304" transform="translate(0,0)"/>
<path d="M0 0 C1.65 0 3.3 0 5 0 C5 7.92 5 15.84 5 24 C4.01 24.33 3.02 24.66 2 25 C-0.34282452 23.76585956 -2.48292584 22.50753507 -4.6875 21.0625 C-5.29400391 20.67642578 -5.90050781 20.29035156 -6.52539062 19.89257812 C-8.02280265 18.93753581 -9.51219401 17.96993914 -11 17 C-9.6875 14.0625 -9.6875 14.0625 -8 11 C-7.01 10.67 -6.02 10.34 -5 10 C-4.27095914 8.35965807 -3.61344757 6.68698082 -3 5 C-1.6875 2.1875 -1.6875 2.1875 0 0 Z " fill="#373735" transform="translate(27,6)"/>
<path d="M0 0 C4.63376608 1.7106735 8.54131131 4.11894852 12.6953125 6.7578125 C15.00378439 8.23722784 15.00378439 8.23722784 18 8 C18 8.66 18 9.32 18 10 C13.71 10 9.42 10 5 10 C4.67 8.02 4.34 6.04 4 4 C3.01 3.67 2.02 3.34 1 3 C0.67 2.01 0.34 1.02 0 0 Z " fill="#060606" transform="translate(14,22)"/>
<path d="M0 0 C1.32 0.33 2.64 0.66 4 1 C0 5 -4 9 -8 13 C-8 9.00717059 -6.52191924 7.84668408 -4 4.8125 C-3.2575 3.91144531 -2.515 3.01039062 -1.75 2.08203125 C-1.1725 1.39496094 -0.595 0.70789062 0 0 Z " fill="#322E29" transform="translate(14,0)"/>
<path d="M0 0 C2.31 0 4.62 0 7 0 C7 1.98 7 3.96 7 6 C4.03 5.505 4.03 5.505 1 5 C0.67 3.35 0.34 1.7 0 0 Z " fill="#020202" transform="translate(25,0)"/>
<path d="M0 0 C0.66 0 1.32 0 2 0 C1.58846263 4.97093824 1.20399168 9.44508386 -1 14 C-1.99 14 -2.98 14 -4 14 C-3.34 13.67 -2.68 13.34 -2 13 C-2.02320313 12.31292969 -2.04640625 11.62585937 -2.0703125 10.91796875 C-2.08835937 10.01691406 -2.10640625 9.11585937 -2.125 8.1875 C-2.14820313 7.29417969 -2.17140625 6.40085937 -2.1953125 5.48046875 C-2 3 -2 3 0 0 Z " fill="#1F1613" transform="translate(13,16)"/>
<path d="M0 0 C3.37503669 1.1858237 5.64722731 2.27573689 8 5 C7.34 6.65 6.68 8.3 6 10 C4 7 4 7 4 4 C3.01 3.67 2.02 3.34 1 3 C0.67 2.01 0.34 1.02 0 0 Z " fill="#140D0C" transform="translate(14,22)"/>
<path d="M0 0 C0.99 0 1.98 0 3 0 C3.33 1.98 3.66 3.96 4 6 C2.68 6 1.36 6 0 6 C0 4.02 0 2.04 0 0 Z " fill="#302C2C" transform="translate(15,26)"/>
</svg>
