<?xml version="1.0" encoding="UTF-8"?>
<svg version="1.1" xmlns="http://www.w3.org/2000/svg" width="32" height="32">
<path d="M0 0 C10.56 0 21.12 0 32 0 C32 10.56 32 21.12 32 32 C21.44 32 10.88 32 0 32 C0 21.44 0 10.88 0 0 Z " fill="#090909" transform="translate(0,0)"/>
<path d="M0 0 C1.13441528 0.10828125 1.13441528 0.10828125 2.29174805 0.21875 C-2.69229364 6.25206362 -8.12740498 11.7371671 -13.70825195 17.21875 C-14.36825195 16.88875 -15.02825195 16.55875 -15.70825195 16.21875 C-13.67059932 13.53224589 -11.59937222 10.87364363 -9.52075195 8.21875 C-8.94260742 7.455625 -8.36446289 6.6925 -7.76879883 5.90625 C-6.91318359 4.8234375 -6.91318359 4.8234375 -6.0402832 3.71875 C-5.52183838 3.0484375 -5.00339355 2.378125 -4.46923828 1.6875 C-2.70825195 0.21875 -2.70825195 0.21875 0 0 Z " fill="#111111" transform="translate(19.708251953125,-0.21875)"/>
</svg>
